<svg xmlns="http://www.w3.org/2000/svg" viewBox="0 0 500 500">
  <g fill="none" fill-rule="evenodd">
    <rect x="9" width="55" y="9" height="55" fill="#007300"/><rect x="9" width="55" y="70" height="55" fill="#007324"/><rect x="9" width="55" y="131" height="55" fill="#007348"/><rect x="9" width="55" y="192" height="55" fill="#00736c"/><rect x="9" width="55" y="253" height="55" fill="#007390"/><rect x="9" width="55" y="314" height="55" fill="#0073b4"/><rect x="9" width="55" y="375" height="55" fill="#0073d8"/><rect x="9" width="55" y="436" height="55" fill="#0073fc"/><rect x="70" width="55" y="9" height="55" fill="#247300"/><rect x="70" width="55" y="70" height="55" fill="#247324"/><rect x="70" width="55" y="131" height="55" fill="#247348"/><rect x="70" width="55" y="192" height="55" fill="#24736c"/><rect x="70" width="55" y="253" height="55" fill="#247390"/><rect x="70" width="55" y="314" height="55" fill="#2473b4"/><rect x="70" width="55" y="375" height="55" fill="#2473d8"/><rect x="70" width="55" y="436" height="55" fill="#2473fc"/><rect x="131" width="55" y="9" height="55" fill="#487300"/><rect x="131" width="55" y="70" height="55" fill="#487324"/><rect x="131" width="55" y="131" height="55" fill="#487348"/><rect x="131" width="55" y="192" height="55" fill="#48736c"/><rect x="131" width="55" y="253" height="55" fill="#487390"/><rect x="131" width="55" y="314" height="55" fill="#4873b4"/><rect x="131" width="55" y="375" height="55" fill="#4873d8"/><rect x="131" width="55" y="436" height="55" fill="#4873fc"/><rect x="192" width="55" y="9" height="55" fill="#6c7300"/><rect x="192" width="55" y="70" height="55" fill="#6c7324"/><rect x="192" width="55" y="131" height="55" fill="#6c7348"/><rect x="192" width="55" y="192" height="55" fill="#6c736c"/><rect x="192" width="55" y="253" height="55" fill="#6c7390"/><rect x="192" width="55" y="314" height="55" fill="#6c73b4"/><rect x="192" width="55" y="375" height="55" fill="#6c73d8"/><rect x="192" width="55" y="436" height="55" fill="#6c73fc"/><rect x="253" width="55" y="9" height="55" fill="#907300"/><rect x="253" width="55" y="70" height="55" fill="#907324"/><rect x="253" width="55" y="131" height="55" fill="#907348"/><rect x="253" width="55" y="192" height="55" fill="#90736c"/><rect x="253" width="55" y="253" height="55" fill="#907390"/><rect x="253" width="55" y="314" height="55" fill="#9073b4"/><rect x="253" width="55" y="375" height="55" fill="#9073d8"/><rect x="253" width="55" y="436" height="55" fill="#9073fc"/><rect x="314" width="55" y="9" height="55" fill="#b47300"/><rect x="314" width="55" y="70" height="55" fill="#b47324"/><rect x="314" width="55" y="131" height="55" fill="#b47348"/><rect x="314" width="55" y="192" height="55" fill="#b4736c"/><rect x="314" width="55" y="253" height="55" fill="#b47390"/><rect x="314" width="55" y="314" height="55" fill="#b473b4"/><rect x="314" width="55" y="375" height="55" fill="#b473d8"/><rect x="314" width="55" y="436" height="55" fill="#b473fc"/><rect x="375" width="55" y="9" height="55" fill="#d87300"/><rect x="375" width="55" y="70" height="55" fill="#d87324"/><rect x="375" width="55" y="131" height="55" fill="#d87348"/><rect x="375" width="55" y="192" height="55" fill="#d8736c"/><rect x="375" width="55" y="253" height="55" fill="#d87390"/><rect x="375" width="55" y="314" height="55" fill="#d873b4"/><rect x="375" width="55" y="375" height="55" fill="#d873d8"/><rect x="375" width="55" y="436" height="55" fill="#d873fc"/><rect x="436" width="55" y="9" height="55" fill="#fc7300"/><rect x="436" width="55" y="70" height="55" fill="#fc7324"/><rect x="436" width="55" y="131" height="55" fill="#fc7348"/><rect x="436" width="55" y="192" height="55" fill="#fc736c"/><rect x="436" width="55" y="253" height="55" fill="#fc7390"/><rect x="436" width="55" y="314" height="55" fill="#fc73b4"/><rect x="436" width="55" y="375" height="55" fill="#fc73d8"/><rect x="436" width="55" y="436" height="55" fill="#fc73fc"/>
  </g>
</svg>