<svg viewBox="0 0 500 500" width="500" height="500" xmlns="http://www.w3.org/2000/svg" xmlns:xlink="http://www.w3.org/1999/xlink">
      <svg class="plot-d6a7b5" fill="currentColor" font-family="system-ui, sans-serif" font-size="10" text-anchor="middle" width="384" height="384" viewBox="0 0 384 384"><style>.plot-d6a7b5 {
  display: block;
  background: white;
  height: auto;
  height: intrinsic;
  max-width: 100%;
}
.plot-d6a7b5 text,
.plot-d6a7b5 tspan {
  white-space: pre;
}</style><g aria-label="cell"><rect x="6" width="21" y="6" height="21" fill="#003700"/><rect x="6" width="21" y="29" height="21" fill="#003710"/><rect x="6" width="21" y="52" height="21" fill="#003720"/><rect x="6" width="21" y="75" height="21" fill="#003730"/><rect x="6" width="21" y="98" height="21" fill="#003740"/><rect x="6" width="21" y="121" height="21" fill="#003750"/><rect x="6" width="21" y="144" height="21" fill="#003760"/><rect x="6" width="21" y="167" height="21" fill="#003770"/><rect x="6" width="21" y="190" height="21" fill="#003780"/><rect x="6" width="21" y="213" height="21" fill="#003790"/><rect x="6" width="21" y="236" height="21" fill="#0037a0"/><rect x="6" width="21" y="259" height="21" fill="#0037b0"/><rect x="6" width="21" y="282" height="21" fill="#0037c0"/><rect x="6" width="21" y="305" height="21" fill="#0037d0"/><rect x="6" width="21" y="328" height="21" fill="#0037e0"/><rect x="6" width="21" y="351" height="21" fill="#0037f0"/><rect x="29" width="21" y="6" height="21" fill="#103700"/><rect x="29" width="21" y="29" height="21" fill="#103710"/><rect x="29" width="21" y="52" height="21" fill="#103720"/><rect x="29" width="21" y="75" height="21" fill="#103730"/><rect x="29" width="21" y="98" height="21" fill="#103740"/><rect x="29" width="21" y="121" height="21" fill="#103750"/><rect x="29" width="21" y="144" height="21" fill="#103760"/><rect x="29" width="21" y="167" height="21" fill="#103770"/><rect x="29" width="21" y="190" height="21" fill="#103780"/><rect x="29" width="21" y="213" height="21" fill="#103790"/><rect x="29" width="21" y="236" height="21" fill="#1037a0"/><rect x="29" width="21" y="259" height="21" fill="#1037b0"/><rect x="29" width="21" y="282" height="21" fill="#1037c0"/><rect x="29" width="21" y="305" height="21" fill="#1037d0"/><rect x="29" width="21" y="328" height="21" fill="#1037e0"/><rect x="29" width="21" y="351" height="21" fill="#1037f0"/><rect x="52" width="21" y="6" height="21" fill="#203700"/><rect x="52" width="21" y="29" height="21" fill="#203710"/><rect x="52" width="21" y="52" height="21" fill="#203720"/><rect x="52" width="21" y="75" height="21" fill="#203730"/><rect x="52" width="21" y="98" height="21" fill="#203740"/><rect x="52" width="21" y="121" height="21" fill="#203750"/><rect x="52" width="21" y="144" height="21" fill="#203760"/><rect x="52" width="21" y="167" height="21" fill="#203770"/><rect x="52" width="21" y="190" height="21" fill="#203780"/><rect x="52" width="21" y="213" height="21" fill="#203790"/><rect x="52" width="21" y="236" height="21" fill="#2037a0"/><rect x="52" width="21" y="259" height="21" fill="#2037b0"/><rect x="52" width="21" y="282" height="21" fill="#2037c0"/><rect x="52" width="21" y="305" height="21" fill="#2037d0"/><rect x="52" width="21" y="328" height="21" fill="#2037e0"/><rect x="52" width="21" y="351" height="21" fill="#2037f0"/><rect x="75" width="21" y="6" height="21" fill="#303700"/><rect x="75" width="21" y="29" height="21" fill="#303710"/><rect x="75" width="21" y="52" height="21" fill="#303720"/><rect x="75" width="21" y="75" height="21" fill="#303730"/><rect x="75" width="21" y="98" height="21" fill="#303740"/><rect x="75" width="21" y="121" height="21" fill="#303750"/><rect x="75" width="21" y="144" height="21" fill="#303760"/><rect x="75" width="21" y="167" height="21" fill="#303770"/><rect x="75" width="21" y="190" height="21" fill="#303780"/><rect x="75" width="21" y="213" height="21" fill="#303790"/><rect x="75" width="21" y="236" height="21" fill="#3037a0"/><rect x="75" width="21" y="259" height="21" fill="#3037b0"/><rect x="75" width="21" y="282" height="21" fill="#3037c0"/><rect x="75" width="21" y="305" height="21" fill="#3037d0"/><rect x="75" width="21" y="328" height="21" fill="#3037e0"/><rect x="75" width="21" y="351" height="21" fill="#3037f0"/><rect x="98" width="21" y="6" height="21" fill="#403700"/><rect x="98" width="21" y="29" height="21" fill="#403710"/><rect x="98" width="21" y="52" height="21" fill="#403720"/><rect x="98" width="21" y="75" height="21" fill="#403730"/><rect x="98" width="21" y="98" height="21" fill="#403740"/><rect x="98" width="21" y="121" height="21" fill="#403750"/><rect x="98" width="21" y="144" height="21" fill="#403760"/><rect x="98" width="21" y="167" height="21" fill="#403770"/><rect x="98" width="21" y="190" height="21" fill="#403780"/><rect x="98" width="21" y="213" height="21" fill="#403790"/><rect x="98" width="21" y="236" height="21" fill="#4037a0"/><rect x="98" width="21" y="259" height="21" fill="#4037b0"/><rect x="98" width="21" y="282" height="21" fill="#4037c0"/><rect x="98" width="21" y="305" height="21" fill="#4037d0"/><rect x="98" width="21" y="328" height="21" fill="#4037e0"/><rect x="98" width="21" y="351" height="21" fill="#4037f0"/><rect x="121" width="21" y="6" height="21" fill="#503700"/><rect x="121" width="21" y="29" height="21" fill="#503710"/><rect x="121" width="21" y="52" height="21" fill="#503720"/><rect x="121" width="21" y="75" height="21" fill="#503730"/><rect x="121" width="21" y="98" height="21" fill="#503740"/><rect x="121" width="21" y="121" height="21" fill="#503750"/><rect x="121" width="21" y="144" height="21" fill="#503760"/><rect x="121" width="21" y="167" height="21" fill="#503770"/><rect x="121" width="21" y="190" height="21" fill="#503780"/><rect x="121" width="21" y="213" height="21" fill="#503790"/><rect x="121" width="21" y="236" height="21" fill="#5037a0"/><rect x="121" width="21" y="259" height="21" fill="#5037b0"/><rect x="121" width="21" y="282" height="21" fill="#5037c0"/><rect x="121" width="21" y="305" height="21" fill="#5037d0"/><rect x="121" width="21" y="328" height="21" fill="#5037e0"/><rect x="121" width="21" y="351" height="21" fill="#5037f0"/><rect x="144" width="21" y="6" height="21" fill="#603700"/><rect x="144" width="21" y="29" height="21" fill="#603710"/><rect x="144" width="21" y="52" height="21" fill="#603720"/><rect x="144" width="21" y="75" height="21" fill="#603730"/><rect x="144" width="21" y="98" height="21" fill="#603740"/><rect x="144" width="21" y="121" height="21" fill="#603750"/><rect x="144" width="21" y="144" height="21" fill="#603760"/><rect x="144" width="21" y="167" height="21" fill="#603770"/><rect x="144" width="21" y="190" height="21" fill="#603780"/><rect x="144" width="21" y="213" height="21" fill="#603790"/><rect x="144" width="21" y="236" height="21" fill="#6037a0"/><rect x="144" width="21" y="259" height="21" fill="#6037b0"/><rect x="144" width="21" y="282" height="21" fill="#6037c0"/><rect x="144" width="21" y="305" height="21" fill="#6037d0"/><rect x="144" width="21" y="328" height="21" fill="#6037e0"/><rect x="144" width="21" y="351" height="21" fill="#6037f0"/><rect x="167" width="21" y="6" height="21" fill="#703700"/><rect x="167" width="21" y="29" height="21" fill="#703710"/><rect x="167" width="21" y="52" height="21" fill="#703720"/><rect x="167" width="21" y="75" height="21" fill="#703730"/><rect x="167" width="21" y="98" height="21" fill="#703740"/><rect x="167" width="21" y="121" height="21" fill="#703750"/><rect x="167" width="21" y="144" height="21" fill="#703760"/><rect x="167" width="21" y="167" height="21" fill="#703770"/><rect x="167" width="21" y="190" height="21" fill="#703780"/><rect x="167" width="21" y="213" height="21" fill="#703790"/><rect x="167" width="21" y="236" height="21" fill="#7037a0"/><rect x="167" width="21" y="259" height="21" fill="#7037b0"/><rect x="167" width="21" y="282" height="21" fill="#7037c0"/><rect x="167" width="21" y="305" height="21" fill="#7037d0"/><rect x="167" width="21" y="328" height="21" fill="#7037e0"/><rect x="167" width="21" y="351" height="21" fill="#7037f0"/><rect x="190" width="21" y="6" height="21" fill="#803700"/><rect x="190" width="21" y="29" height="21" fill="#803710"/><rect x="190" width="21" y="52" height="21" fill="#803720"/><rect x="190" width="21" y="75" height="21" fill="#803730"/><rect x="190" width="21" y="98" height="21" fill="#803740"/><rect x="190" width="21" y="121" height="21" fill="#803750"/><rect x="190" width="21" y="144" height="21" fill="#803760"/><rect x="190" width="21" y="167" height="21" fill="#803770"/><rect x="190" width="21" y="190" height="21" fill="#803780"/><rect x="190" width="21" y="213" height="21" fill="#803790"/><rect x="190" width="21" y="236" height="21" fill="#8037a0"/><rect x="190" width="21" y="259" height="21" fill="#8037b0"/><rect x="190" width="21" y="282" height="21" fill="#8037c0"/><rect x="190" width="21" y="305" height="21" fill="#8037d0"/><rect x="190" width="21" y="328" height="21" fill="#8037e0"/><rect x="190" width="21" y="351" height="21" fill="#8037f0"/><rect x="213" width="21" y="6" height="21" fill="#903700"/><rect x="213" width="21" y="29" height="21" fill="#903710"/><rect x="213" width="21" y="52" height="21" fill="#903720"/><rect x="213" width="21" y="75" height="21" fill="#903730"/><rect x="213" width="21" y="98" height="21" fill="#903740"/><rect x="213" width="21" y="121" height="21" fill="#903750"/><rect x="213" width="21" y="144" height="21" fill="#903760"/><rect x="213" width="21" y="167" height="21" fill="#903770"/><rect x="213" width="21" y="190" height="21" fill="#903780"/><rect x="213" width="21" y="213" height="21" fill="#903790"/><rect x="213" width="21" y="236" height="21" fill="#9037a0"/><rect x="213" width="21" y="259" height="21" fill="#9037b0"/><rect x="213" width="21" y="282" height="21" fill="#9037c0"/><rect x="213" width="21" y="305" height="21" fill="#9037d0"/><rect x="213" width="21" y="328" height="21" fill="#9037e0"/><rect x="213" width="21" y="351" height="21" fill="#9037f0"/><rect x="236" width="21" y="6" height="21" fill="#a03700"/><rect x="236" width="21" y="29" height="21" fill="#a03710"/><rect x="236" width="21" y="52" height="21" fill="#a03720"/><rect x="236" width="21" y="75" height="21" fill="#a03730"/><rect x="236" width="21" y="98" height="21" fill="#a03740"/><rect x="236" width="21" y="121" height="21" fill="#a03750"/><rect x="236" width="21" y="144" height="21" fill="#a03760"/><rect x="236" width="21" y="167" height="21" fill="#a03770"/><rect x="236" width="21" y="190" height="21" fill="#a03780"/><rect x="236" width="21" y="213" height="21" fill="#a03790"/><rect x="236" width="21" y="236" height="21" fill="#a037a0"/><rect x="236" width="21" y="259" height="21" fill="#a037b0"/><rect x="236" width="21" y="282" height="21" fill="#a037c0"/><rect x="236" width="21" y="305" height="21" fill="#a037d0"/><rect x="236" width="21" y="328" height="21" fill="#a037e0"/><rect x="236" width="21" y="351" height="21" fill="#a037f0"/><rect x="259" width="21" y="6" height="21" fill="#b03700"/><rect x="259" width="21" y="29" height="21" fill="#b03710"/><rect x="259" width="21" y="52" height="21" fill="#b03720"/><rect x="259" width="21" y="75" height="21" fill="#b03730"/><rect x="259" width="21" y="98" height="21" fill="#b03740"/><rect x="259" width="21" y="121" height="21" fill="#b03750"/><rect x="259" width="21" y="144" height="21" fill="#b03760"/><rect x="259" width="21" y="167" height="21" fill="#b03770"/><rect x="259" width="21" y="190" height="21" fill="#b03780"/><rect x="259" width="21" y="213" height="21" fill="#b03790"/><rect x="259" width="21" y="236" height="21" fill="#b037a0"/><rect x="259" width="21" y="259" height="21" fill="#b037b0"/><rect x="259" width="21" y="282" height="21" fill="#b037c0"/><rect x="259" width="21" y="305" height="21" fill="#b037d0"/><rect x="259" width="21" y="328" height="21" fill="#b037e0"/><rect x="259" width="21" y="351" height="21" fill="#b037f0"/><rect x="282" width="21" y="6" height="21" fill="#c03700"/><rect x="282" width="21" y="29" height="21" fill="#c03710"/><rect x="282" width="21" y="52" height="21" fill="#c03720"/><rect x="282" width="21" y="75" height="21" fill="#c03730"/><rect x="282" width="21" y="98" height="21" fill="#c03740"/><rect x="282" width="21" y="121" height="21" fill="#c03750"/><rect x="282" width="21" y="144" height="21" fill="#c03760"/><rect x="282" width="21" y="167" height="21" fill="#c03770"/><rect x="282" width="21" y="190" height="21" fill="#c03780"/><rect x="282" width="21" y="213" height="21" fill="#c03790"/><rect x="282" width="21" y="236" height="21" fill="#c037a0"/><rect x="282" width="21" y="259" height="21" fill="#c037b0"/><rect x="282" width="21" y="282" height="21" fill="#c037c0"/><rect x="282" width="21" y="305" height="21" fill="#c037d0"/><rect x="282" width="21" y="328" height="21" fill="#c037e0"/><rect x="282" width="21" y="351" height="21" fill="#c037f0"/><rect x="305" width="21" y="6" height="21" fill="#d03700"/><rect x="305" width="21" y="29" height="21" fill="#d03710"/><rect x="305" width="21" y="52" height="21" fill="#d03720"/><rect x="305" width="21" y="75" height="21" fill="#d03730"/><rect x="305" width="21" y="98" height="21" fill="#d03740"/><rect x="305" width="21" y="121" height="21" fill="#d03750"/><rect x="305" width="21" y="144" height="21" fill="#d03760"/><rect x="305" width="21" y="167" height="21" fill="#d03770"/><rect x="305" width="21" y="190" height="21" fill="#d03780"/><rect x="305" width="21" y="213" height="21" fill="#d03790"/><rect x="305" width="21" y="236" height="21" fill="#d037a0"/><rect x="305" width="21" y="259" height="21" fill="#d037b0"/><rect x="305" width="21" y="282" height="21" fill="#d037c0"/><rect x="305" width="21" y="305" height="21" fill="#d037d0"/><rect x="305" width="21" y="328" height="21" fill="#d037e0"/><rect x="305" width="21" y="351" height="21" fill="#d037f0"/><rect x="328" width="21" y="6" height="21" fill="#e03700"/><rect x="328" width="21" y="29" height="21" fill="#e03710"/><rect x="328" width="21" y="52" height="21" fill="#e03720"/><rect x="328" width="21" y="75" height="21" fill="#e03730"/><rect x="328" width="21" y="98" height="21" fill="#e03740"/><rect x="328" width="21" y="121" height="21" fill="#e03750"/><rect x="328" width="21" y="144" height="21" fill="#e03760"/><rect x="328" width="21" y="167" height="21" fill="#e03770"/><rect x="328" width="21" y="190" height="21" fill="#e03780"/><rect x="328" width="21" y="213" height="21" fill="#e03790"/><rect x="328" width="21" y="236" height="21" fill="#e037a0"/><rect x="328" width="21" y="259" height="21" fill="#e037b0"/><rect x="328" width="21" y="282" height="21" fill="#e037c0"/><rect x="328" width="21" y="305" height="21" fill="#e037d0"/><rect x="328" width="21" y="328" height="21" fill="#e037e0"/><rect x="328" width="21" y="351" height="21" fill="#e037f0"/><rect x="351" width="21" y="6" height="21" fill="#f03700"/><rect x="351" width="21" y="29" height="21" fill="#f03710"/><rect x="351" width="21" y="52" height="21" fill="#f03720"/><rect x="351" width="21" y="75" height="21" fill="#f03730"/><rect x="351" width="21" y="98" height="21" fill="#f03740"/><rect x="351" width="21" y="121" height="21" fill="#f03750"/><rect x="351" width="21" y="144" height="21" fill="#f03760"/><rect x="351" width="21" y="167" height="21" fill="#f03770"/><rect x="351" width="21" y="190" height="21" fill="#f03780"/><rect x="351" width="21" y="213" height="21" fill="#f03790"/><rect x="351" width="21" y="236" height="21" fill="#f037a0"/><rect x="351" width="21" y="259" height="21" fill="#f037b0"/><rect x="351" width="21" y="282" height="21" fill="#f037c0"/><rect x="351" width="21" y="305" height="21" fill="#f037d0"/><rect x="351" width="21" y="328" height="21" fill="#f037e0"/><rect x="351" width="21" y="351" height="21" fill="#f037f0"/></g></svg>
    </svg>